<?xml version="1.0" encoding="UTF-8"?>
<!DOCTYPE svg PUBLIC "-//W3C//DTD SVG 1.1//EN" "http://www.w3.org/Graphics/SVG/1.1/DTD/svg11.dtd">
<svg width="900pt" height="900pt" viewBox="0 0 900 900" version="1.1" xmlns="http://www.w3.org/2000/svg">
<g id="#fffffbff">
<path fill="#fffffb" opacity="1.00" d=" M 357.87 180.38 C 425.02 152.34 491.84 123.49 559.25 96.08 C 543.28 148.86 526.44 201.39 510.09 254.05 C 459.64 228.91 408.33 205.50 357.87 180.38 Z"/>
<path fill="#fffffb" opacity="1.00" d=" M 184.06 98.05 C 229.47 120.51 275.42 141.89 321.01 163.98 C 332.14 169.37 343.53 174.28 354.20 180.58 C 294.78 195.38 235.28 209.86 175.90 224.82 C 178.84 182.58 181.04 140.28 184.06 98.05 Z"/>
<path fill="#fffffb" opacity="1.00" d=" M 510.87 255.00 C 551.80 274.82 593.13 293.83 634.16 313.45 C 611.28 331.65 587.20 348.28 563.84 365.85 C 525.89 394.01 487.77 421.94 449.79 450.05 C 469.53 384.85 490.58 320.04 510.87 255.00 Z"/>
<path fill="#fffffb" opacity="1.00" d=" M 26.81 320.04 C 66.09 303.37 105.40 286.71 144.94 270.65 C 149.85 331.16 154.76 391.66 159.81 452.16 C 134.45 427.54 110.25 401.71 84.26 377.74 C 64.97 358.65 45.92 339.31 26.81 320.04 Z"/>
<path fill="#fffffb" opacity="1.00" d=" M 282.11 574.66 C 337.02 533.91 392.25 493.58 447.24 452.92 C 425.32 525.93 401.71 598.45 379.44 671.36 C 346.39 639.76 314.75 606.69 282.11 574.66 Z"/>
<path fill="#fffffb" opacity="1.00" d=" M 161.06 454.84 C 201.32 494.35 240.81 534.66 280.90 574.33 C 236.49 607.52 191.80 640.35 147.29 673.40 C 151.38 600.52 156.15 527.67 161.06 454.84 Z"/>
</g>
<g id="#000000ff">
<path fill="#000000" opacity="1.00" d=" M 357.87 110.82 C 385.81 77.54 413.51 44.04 441.59 10.88 C 469.67 43.40 497.94 75.76 525.96 108.34 C 537.69 103.85 549.13 98.65 560.77 93.94 C 566.67 103.99 573.11 113.72 579.08 123.74 C 620.01 113.51 660.93 103.23 701.88 93.05 C 705.16 135.96 707.78 178.94 711.83 221.78 C 722.64 223.95 733.35 226.63 744.08 229.22 C 743.43 240.83 742.59 252.42 741.90 264.03 C 782.11 280.52 822.72 296.00 863.02 312.25 C 841.72 348.53 819.46 384.26 798.68 420.83 C 806.92 429.85 814.88 439.12 822.94 448.32 C 814.95 458.05 806.99 467.81 798.57 477.17 C 820.15 513.38 843.18 548.72 865.00 584.78 C 825.02 601.53 785.05 618.30 745.05 635.01 C 746.02 646.95 746.83 658.90 748.00 670.83 C 737.03 673.48 726.08 676.23 715.15 679.03 C 712.21 721.72 710.01 764.47 706.89 807.15 C 665.99 797.39 625.15 787.37 584.17 777.97 C 578.31 787.66 572.39 797.30 566.78 807.13 C 555.24 802.46 543.64 797.93 532.13 793.18 C 504.38 826.56 476.26 859.63 448.65 893.13 C 420.27 860.80 392.14 828.23 364.04 795.66 C 352.31 800.15 340.87 805.35 329.23 810.06 C 323.32 800.01 316.89 790.28 310.92 780.26 C 269.99 790.49 229.06 800.76 188.12 810.95 C 184.84 768.04 182.22 725.06 178.17 682.22 C 167.35 680.05 156.65 677.37 145.92 674.78 C 146.56 663.17 147.41 651.57 148.10 639.97 C 107.91 623.49 67.31 608.01 27.02 591.77 C 48.21 555.41 70.57 519.71 91.43 483.16 C 83.09 474.19 75.12 464.90 67.07 455.68 C 75.04 445.94 83.01 436.19 91.43 426.83 C 69.88 390.60 46.77 355.31 25.00 319.22 C 64.98 302.47 104.96 285.70 144.95 268.99 C 143.98 257.05 143.17 245.09 142.00 233.17 C 152.97 230.51 163.91 227.76 174.85 224.97 C 177.79 182.27 179.99 139.53 183.11 96.84 C 224.02 106.56 264.84 116.67 305.83 126.03 C 311.68 116.34 317.61 106.70 323.22 96.87 C 334.76 101.54 346.36 106.07 357.87 110.82 M 441.17 12.78 C 414.50 68.27 386.10 122.92 359.02 178.21 C 365.10 176.04 371.03 173.49 376.98 170.98 C 426.05 150.18 475.22 129.61 524.30 108.82 C 496.91 76.53 469.02 44.67 441.17 12.78 M 339.04 134.37 C 344.72 149.40 350.72 164.32 356.53 179.31 C 363.08 167.41 368.88 155.12 374.99 143.00 C 395.50 101.50 416.82 60.39 436.79 18.63 C 404.52 57.48 372.07 96.18 339.04 134.37 M 579.80 124.88 C 611.96 176.28 643.47 228.08 675.93 279.28 C 679.00 263.88 680.40 248.21 682.66 232.68 C 688.70 186.69 694.91 140.72 700.92 94.73 C 660.46 104.40 620.15 114.73 579.80 124.88 M 357.87 180.38 C 408.33 205.50 459.64 228.91 510.09 254.05 C 526.44 201.39 543.28 148.86 559.25 96.08 C 491.84 123.49 425.02 152.34 357.87 180.38 M 560.47 96.78 C 544.49 149.27 527.43 201.43 511.71 254.00 C 566.08 263.37 620.67 271.46 675.04 280.93 C 636.78 219.59 599.09 157.88 560.47 96.78 M 184.06 98.05 C 181.04 140.28 178.84 182.58 175.90 224.82 C 235.28 209.86 294.78 195.38 354.20 180.58 C 343.53 174.28 332.14 169.37 321.01 163.98 C 275.42 141.89 229.47 120.51 184.06 98.05 M 323.50 99.05 C 318.24 108.42 312.51 117.52 307.01 126.75 C 317.35 128.94 327.64 131.35 337.88 133.97 C 333.11 122.32 328.29 110.69 323.50 99.05 M 324.90 99.04 C 329.45 110.18 334.15 121.28 338.60 132.47 C 344.77 125.70 350.51 118.56 356.26 111.44 C 345.77 107.39 335.40 103.05 324.90 99.04 M 191.68 100.27 C 245.87 127.02 300.91 152.06 354.91 179.19 C 349.50 164.40 343.58 149.82 337.82 135.17 C 289.15 123.36 240.42 111.80 191.68 100.27 M 695.34 143.32 C 689.31 188.67 683.31 234.03 677.30 279.38 C 689.31 270.76 700.95 261.65 712.86 252.90 C 708.81 202.18 704.99 151.43 701.45 100.67 C 698.76 114.78 697.37 129.10 695.34 143.32 M 144.53 234.20 C 189.69 266.28 234.18 299.29 279.60 331.00 C 303.02 280.58 330.46 232.12 354.27 181.88 C 284.36 199.30 214.24 215.97 144.53 234.20 M 327.02 239.01 C 312.68 268.65 296.36 297.30 282.82 327.32 C 313.70 295.55 344.15 263.36 375.02 231.58 C 368.93 214.93 362.63 198.36 356.39 181.77 C 346.28 200.69 337.28 220.17 327.02 239.01 M 357.87 182.06 C 364.04 198.31 370.05 214.61 376.22 230.86 C 394.73 234.87 413.54 237.26 432.14 240.79 C 456.23 244.59 480.16 249.43 504.33 252.72 C 455.71 228.77 406.56 205.87 357.87 182.06 M 711.95 222.93 C 712.51 232.71 713.18 242.49 714.06 252.25 C 723.60 245.10 732.83 237.56 742.13 230.10 C 732.12 227.47 722.05 225.11 711.95 222.93 M 376.73 232.25 C 387.57 266.19 399.37 299.82 410.33 333.72 C 422.58 372.66 436.35 411.12 448.59 450.07 C 453.39 431.36 459.99 413.17 465.54 394.68 C 480.08 348.04 495.21 301.58 509.33 254.82 C 465.12 247.39 420.93 239.79 376.73 232.25 M 715.62 253.43 C 723.98 256.79 732.30 260.29 740.79 263.31 C 741.53 252.77 742.24 242.23 742.89 231.68 C 733.51 238.56 724.42 245.83 715.62 253.43 M 375.33 233.02 C 343.99 265.89 312.84 298.97 280.73 331.09 C 305.28 348.58 329.97 365.89 354.36 383.62 C 385.67 404.87 415.71 427.93 447.13 449.02 C 422.91 377.11 399.87 304.82 375.33 233.02 M 143.01 234.96 C 149.74 307.00 154.82 379.19 161.12 451.27 C 172.56 440.64 182.56 428.62 193.73 417.73 C 210.29 401.94 225.20 384.55 241.77 368.77 C 254.28 356.82 265.07 343.17 278.31 331.97 C 232.96 299.97 188.35 266.97 143.01 234.96 M 677.93 280.83 C 718.31 288.55 759.03 294.51 799.54 301.53 C 817.46 304.29 835.24 308.08 853.30 309.87 C 806.88 291.10 760.07 273.27 713.86 254.00 C 701.75 262.77 689.89 271.87 677.93 280.83 M 510.87 255.00 C 490.58 320.04 469.53 384.85 449.79 450.05 C 487.77 421.94 525.89 394.01 563.84 365.85 C 587.20 348.28 611.28 331.65 634.16 313.45 C 593.13 293.83 551.80 274.82 510.87 255.00 M 516.71 256.12 C 556.00 275.54 596.07 293.38 635.40 312.70 C 649.01 303.04 661.79 292.29 675.05 282.16 C 650.35 277.01 625.29 273.87 600.46 269.47 C 572.52 265.14 544.69 260.16 516.71 256.12 M 26.81 320.04 C 45.92 339.31 64.97 358.65 84.26 377.74 C 110.25 401.71 134.45 427.54 159.81 452.16 C 154.76 391.66 149.85 331.16 144.94 270.65 C 105.40 286.71 66.09 303.37 26.81 320.04 M 678.54 282.38 C 718.41 327.68 757.77 373.45 797.95 418.47 C 819.08 383.25 840.26 348.06 861.02 312.64 C 800.17 302.73 739.39 292.32 678.54 282.38 M 676.95 282.86 C 669.29 338.14 662.94 393.61 655.89 448.98 C 681.91 448.86 707.94 449.42 733.97 448.64 C 762.75 447.30 791.58 448.45 820.38 447.81 C 812.28 437.87 803.42 428.55 795.64 418.33 C 756.11 373.14 716.74 327.81 676.95 282.86 M 636.17 314.12 C 643.03 357.46 648.91 400.94 655.58 444.31 C 659.39 414.50 663.04 384.67 666.79 354.86 C 669.45 331.16 673.34 307.60 675.16 283.82 C 662.07 293.81 649.32 304.22 636.17 314.12 M 528.62 393.61 C 503.11 412.85 476.83 431.08 451.72 450.83 C 464.14 451.06 476.58 451.21 489.01 450.79 C 527.35 448.75 565.78 451.18 604.13 449.34 C 621.09 448.78 638.06 449.03 655.04 448.96 C 647.80 404.38 641.91 359.58 634.97 314.95 C 599.73 341.45 564.00 367.29 528.62 393.61 M 30.71 325.94 C 50.17 357.83 70.34 389.31 89.80 421.21 C 96.47 432.07 103.75 442.58 109.70 453.87 C 125.88 453.91 142.04 452.86 158.22 452.78 C 133.47 428.20 109.31 403.00 83.76 379.24 C 66.03 361.52 48.21 343.89 30.71 325.94 M 282.82 327.32 C 282.26 327.77 282.26 327.77 282.82 327.32 M 279.41 332.00 C 277.52 336.78 275.31 341.41 273.01 346.01 C 255.28 381.80 236.55 417.09 219.01 452.98 C 238.06 453.01 257.12 453.32 276.16 452.39 C 312.75 451.30 349.37 452.66 385.96 451.68 C 406.07 450.70 426.20 451.14 446.31 450.77 C 425.76 435.52 404.87 420.73 383.79 406.22 C 349.24 381.13 314.10 356.88 279.41 332.00 M 276.19 335.68 C 276.74 335.22 276.74 335.22 276.19 335.68 M 264.35 347.34 C 248.65 364.94 230.86 380.55 215.20 398.20 C 197.02 416.05 179.63 434.66 161.81 452.87 C 180.45 453.11 199.09 453.06 217.73 452.87 C 236.44 413.41 257.89 375.33 276.19 335.68 C 272.07 339.38 268.15 343.30 264.35 347.34 M 69.74 454.98 C 82.63 454.87 95.49 454.15 108.37 453.72 C 103.25 445.03 97.81 436.53 92.57 427.91 C 84.63 436.64 76.97 445.64 69.74 454.98 M 655.98 450.05 C 664.72 505.33 671.30 560.94 680.09 616.22 C 726.70 560.42 774.04 505.23 820.27 449.13 C 798.51 448.98 776.75 448.81 754.99 449.09 C 722.01 450.76 688.98 449.67 655.98 450.05 M 601.97 450.76 C 571.31 451.52 540.64 450.48 509.99 451.23 C 490.24 452.39 470.45 451.80 450.69 452.23 C 475.10 470.69 500.81 487.35 525.36 505.62 C 562.69 531.69 599.57 558.42 636.95 584.42 C 643.63 539.73 648.95 494.82 655.04 450.04 C 637.34 449.93 619.63 449.69 601.97 450.76 M 390.84 452.61 C 351.89 453.86 312.90 451.97 273.97 453.69 C 255.63 454.26 237.28 453.92 218.94 454.02 C 239.64 493.91 261.22 533.34 281.60 573.39 C 335.86 532.58 391.24 493.25 445.27 452.16 C 427.13 451.86 408.97 451.73 390.84 452.61 M 282.11 574.66 C 314.75 606.69 346.39 639.76 379.44 671.36 C 401.71 598.45 425.32 525.93 447.24 452.92 C 392.25 493.58 337.02 533.91 282.11 574.66 M 380.71 671.76 C 424.48 663.55 468.23 655.30 512.03 647.29 C 511.32 644.02 510.48 640.79 509.45 637.62 C 498.55 605.09 487.47 572.62 477.14 539.91 C 467.67 510.90 457.46 482.12 448.47 452.95 C 426.72 526.13 402.80 598.67 380.71 671.76 M 109.40 455.29 C 103.02 466.58 95.83 477.41 89.82 488.92 C 70.69 521.46 51.16 553.75 31.87 586.19 C 74.44 542.28 117.07 498.39 159.16 454.01 C 142.56 454.01 125.99 455.02 109.40 455.29 M 162.77 454.15 C 200.98 492.70 239.58 530.88 277.81 569.41 C 258.59 530.57 237.04 492.91 217.70 454.14 C 199.39 453.93 181.08 453.87 162.77 454.15 M 449.84 453.97 C 471.58 517.98 491.71 582.52 513.93 646.35 C 554.78 626.47 595.13 605.58 635.98 585.69 C 573.94 541.78 512.17 497.47 449.84 453.97 M 638.06 585.69 C 651.96 595.77 664.98 607.01 678.84 617.15 C 670.31 562.78 663.27 508.17 655.41 453.70 C 649.68 497.70 643.62 541.67 638.06 585.69 M 69.71 456.26 C 76.92 464.85 84.04 473.56 92.00 481.48 C 97.63 472.79 102.79 463.81 108.11 454.94 C 95.31 455.24 82.52 456.09 69.71 456.26 M 161.06 454.84 C 156.15 527.67 151.38 600.52 147.29 673.40 C 191.80 640.35 236.49 607.52 280.90 574.33 C 240.81 534.66 201.32 494.35 161.06 454.84 M 28.80 590.95 C 50.60 600.13 72.83 608.26 94.70 617.28 C 112.56 623.98 130.09 631.51 147.95 638.20 C 152.58 577.44 155.79 516.56 159.89 455.76 C 115.96 500.60 73.25 546.63 28.80 590.95 M 680.86 617.93 C 741.54 606.15 802.46 595.64 863.18 584.05 C 841.20 549.04 819.46 513.88 797.64 478.77 C 758.78 525.21 719.47 571.28 680.86 617.93 M 186.85 645.86 C 174.38 655.34 161.19 663.91 149.53 674.42 C 219.30 690.77 289.05 707.22 358.90 723.25 C 333.23 673.94 306.49 625.18 281.45 575.55 C 250.14 599.29 218.34 622.37 186.85 645.86 M 285.20 579.59 C 287.56 584.84 290.04 590.06 292.78 595.14 C 315.43 637.74 337.70 680.55 360.51 723.07 C 366.60 706.36 372.65 689.64 378.96 673.01 C 347.29 642.31 316.42 610.76 285.20 579.59 M 627.94 590.88 C 591.70 609.52 554.91 627.08 518.77 645.91 C 571.55 636.44 624.43 627.52 677.22 618.04 C 666.77 609.71 656.21 601.55 645.80 593.19 C 642.85 591.19 640.40 588.26 636.92 587.22 C 633.68 587.65 630.88 589.60 627.94 590.88 M 681.87 619.08 C 692.77 627.18 703.40 635.65 714.45 643.56 C 717.53 645.93 721.24 643.40 724.34 642.38 C 767.93 623.83 811.83 606.01 855.29 587.15 C 797.42 597.46 739.59 608.01 681.87 619.08 M 514.96 647.74 C 515.62 650.74 516.39 653.73 517.32 656.66 C 533.83 705.79 550.15 754.99 566.54 804.16 C 588.91 768.78 610.17 732.71 631.94 696.95 C 647.36 671.05 663.11 645.34 678.35 619.33 C 623.87 628.69 569.46 638.49 514.96 647.74 M 680.16 619.82 C 689.49 679.23 697.05 738.91 706.46 798.30 C 709.76 747.65 712.95 696.99 716.02 646.33 C 703.91 637.71 692.29 628.42 680.16 619.82 M 640.45 685.41 C 622.23 715.91 603.50 746.10 585.58 776.78 C 625.65 786.74 665.94 795.80 706.01 805.76 C 696.53 744.46 688.56 682.92 678.98 621.64 C 665.74 642.65 653.37 664.20 640.45 685.41 M 717.00 646.49 C 726.98 654.08 736.83 661.82 746.94 669.24 C 745.76 658.09 744.91 646.91 743.92 635.75 C 734.86 639.13 726.06 643.13 717.00 646.49 M 380.20 673.18 C 374.11 689.52 368.14 705.90 362.12 722.27 C 410.99 698.20 459.62 673.65 508.33 649.29 C 465.59 657.09 422.89 665.11 380.20 673.18 M 361.69 724.27 C 390.29 736.31 419.37 747.16 448.12 758.85 C 487.03 774.63 526.16 789.83 565.32 804.98 C 548.13 752.79 530.98 700.56 513.07 648.62 C 462.52 673.65 412.07 698.89 361.69 724.27 M 717.20 648.62 C 716.17 658.31 715.67 668.05 714.94 677.77 C 725.03 675.18 735.18 672.80 745.25 670.08 C 736.04 662.74 726.64 655.65 717.20 648.62 M 179.92 682.91 C 182.53 725.05 186.14 767.11 189.15 809.22 C 245.70 781.30 302.10 753.07 358.39 724.62 C 298.94 710.53 239.44 696.66 179.92 682.91 M 197.79 806.85 C 246.31 795.67 294.50 783.02 342.80 770.92 C 348.33 755.98 353.68 740.98 359.13 726.01 C 305.32 752.90 251.38 779.53 197.79 806.85 M 343.98 771.62 C 351.44 780.27 358.83 788.99 366.91 797.08 C 392.71 826.38 417.97 856.16 443.83 885.41 C 416.77 831.84 388.11 779.09 360.70 725.70 C 354.88 740.91 349.46 756.28 343.98 771.62 M 362.72 726.19 C 382.10 764.32 402.38 801.99 422.04 839.98 C 430.88 857.02 440.31 873.78 448.22 891.29 C 475.34 858.37 503.07 825.96 530.20 793.04 C 515.03 786.61 499.51 781.04 484.30 774.72 C 443.85 758.34 403.14 742.62 362.72 726.19 M 342.36 772.73 C 342.81 772.20 342.81 772.20 342.36 772.73 M 312.49 780.30 C 318.15 789.56 323.99 798.70 329.62 807.98 C 333.69 796.17 338.51 784.62 342.36 772.73 C 332.32 774.90 322.25 777.07 312.49 780.30 M 343.67 773.57 C 339.36 784.99 335.19 796.47 330.89 807.90 C 341.33 803.63 351.72 799.23 362.12 794.88 C 356.22 787.57 350.11 780.41 343.67 773.57 M 196.27 807.27 C 196.77 807.77 196.77 807.77 196.27 807.27 Z"/>
</g>
<g id="#91cbffff">
<path fill="#91cbff" opacity="1.00" d=" M 441.17 12.78 C 469.02 44.67 496.91 76.53 524.30 108.82 C 475.22 129.61 426.05 150.18 376.98 170.98 C 371.03 173.49 365.10 176.04 359.02 178.21 C 386.10 122.92 414.50 68.27 441.17 12.78 Z"/>
<path fill="#91cbff" opacity="1.00" d=" M 579.80 124.88 C 620.15 114.73 660.46 104.40 700.92 94.73 C 694.91 140.72 688.70 186.69 682.66 232.68 C 680.40 248.21 679.00 263.88 675.93 279.28 C 643.47 228.08 611.96 176.28 579.80 124.88 Z"/>
<path fill="#91cbff" opacity="1.00" d=" M 144.53 234.20 C 214.24 215.97 284.36 199.30 354.27 181.88 C 330.46 232.12 303.02 280.58 279.60 331.00 C 234.18 299.29 189.69 266.28 144.53 234.20 Z"/>
<path fill="#91cbff" opacity="1.00" d=" M 676.95 282.86 C 716.74 327.81 756.11 373.14 795.64 418.33 C 803.42 428.55 812.28 437.87 820.38 447.81 C 791.58 448.45 762.75 447.30 733.97 448.64 C 707.94 449.42 681.91 448.86 655.89 448.98 C 662.94 393.61 669.29 338.14 676.95 282.86 Z"/>
<path fill="#91cbff" opacity="1.00" d=" M 279.41 332.00 C 314.10 356.88 349.24 381.13 383.79 406.22 C 404.87 420.73 425.76 435.52 446.31 450.77 C 426.20 451.14 406.07 450.70 385.96 451.68 C 349.37 452.66 312.75 451.30 276.16 452.39 C 257.12 453.32 238.06 453.01 219.01 452.98 C 236.55 417.09 255.28 381.80 273.01 346.01 C 275.31 341.41 277.52 336.78 279.41 332.00 Z"/>
<path fill="#91cbff" opacity="1.00" d=" M 601.97 450.76 C 619.63 449.69 637.34 449.93 655.04 450.04 C 648.95 494.82 643.63 539.73 636.95 584.42 C 599.57 558.42 562.69 531.69 525.36 505.62 C 500.81 487.35 475.10 470.69 450.69 452.23 C 470.45 451.80 490.24 452.39 509.99 451.23 C 540.64 450.48 571.31 451.52 601.97 450.76 Z"/>
</g>
<g id="#cffdacff">
<path fill="#cffdac" opacity="1.00" d=" M 339.04 134.37 C 372.07 96.18 404.52 57.48 436.79 18.63 C 416.82 60.39 395.50 101.50 374.99 143.00 C 368.88 155.12 363.08 167.41 356.53 179.31 C 350.72 164.32 344.72 149.40 339.04 134.37 Z"/>
<path fill="#cffdac" opacity="1.00" d=" M 323.50 99.05 C 328.29 110.69 333.11 122.32 337.88 133.97 C 327.64 131.35 317.35 128.94 307.01 126.75 C 312.51 117.52 318.24 108.42 323.50 99.05 Z"/>
<path fill="#cffdac" opacity="1.00" d=" M 327.02 239.01 C 337.28 220.17 346.28 200.69 356.39 181.77 C 362.63 198.36 368.93 214.93 375.02 231.58 C 344.15 263.36 313.70 295.55 282.82 327.32 C 296.36 297.30 312.68 268.65 327.02 239.01 Z"/>
<path fill="#cffdac" opacity="1.00" d=" M 282.82 327.32 C 282.26 327.77 282.26 327.77 282.82 327.32 Z"/>
<path fill="#cffdac" opacity="1.00" d=" M 276.19 335.68 C 276.74 335.22 276.74 335.22 276.19 335.68 Z"/>
<path fill="#cffdac" opacity="1.00" d=" M 264.35 347.34 C 268.15 343.30 272.07 339.38 276.19 335.68 C 257.89 375.33 236.44 413.41 217.73 452.87 C 199.09 453.06 180.45 453.11 161.81 452.87 C 179.63 434.66 197.02 416.05 215.20 398.20 C 230.86 380.55 248.65 364.94 264.35 347.34 Z"/>
<path fill="#cffdac" opacity="1.00" d=" M 69.74 454.98 C 76.97 445.64 84.63 436.64 92.57 427.91 C 97.81 436.53 103.25 445.03 108.37 453.72 C 95.49 454.15 82.63 454.87 69.74 454.98 Z"/>
<path fill="#cffdac" opacity="1.00" d=" M 109.40 455.29 C 125.99 455.02 142.56 454.01 159.16 454.01 C 117.07 498.39 74.44 542.28 31.87 586.19 C 51.16 553.75 70.69 521.46 89.82 488.92 C 95.83 477.41 103.02 466.58 109.40 455.29 Z"/>
</g>
<g id="#4d49b0ff">
<path fill="#4d49b0" opacity="1.00" d=" M 560.47 96.78 C 599.09 157.88 636.78 219.59 675.04 280.93 C 620.67 271.46 566.08 263.37 511.71 254.00 C 527.43 201.43 544.49 149.27 560.47 96.78 Z"/>
<path fill="#4d49b0" opacity="1.00" d=" M 376.73 232.25 C 420.93 239.79 465.12 247.39 509.33 254.82 C 495.21 301.58 480.08 348.04 465.54 394.68 C 459.99 413.17 453.39 431.36 448.59 450.07 C 436.35 411.12 422.58 372.66 410.33 333.72 C 399.37 299.82 387.57 266.19 376.73 232.25 Z"/>
<path fill="#4d49b0" opacity="1.00" d=" M 678.54 282.38 C 739.39 292.32 800.17 302.73 861.02 312.64 C 840.26 348.06 819.08 383.25 797.95 418.47 C 757.77 373.45 718.41 327.68 678.54 282.38 Z"/>
<path fill="#4d49b0" opacity="1.00" d=" M 380.71 671.76 C 402.80 598.67 426.72 526.13 448.47 452.95 C 457.46 482.12 467.67 510.90 477.14 539.91 C 487.47 572.62 498.55 605.09 509.45 637.62 C 510.48 640.79 511.32 644.02 512.03 647.29 C 468.23 655.30 424.48 663.55 380.71 671.76 Z"/>
<path fill="#4d49b0" opacity="1.00" d=" M 680.86 617.93 C 719.47 571.28 758.78 525.21 797.64 478.77 C 819.46 513.88 841.20 549.04 863.18 584.05 C 802.46 595.64 741.54 606.15 680.86 617.93 Z"/>
<path fill="#4d49b0" opacity="1.00" d=" M 514.96 647.74 C 569.46 638.49 623.87 628.69 678.35 619.33 C 663.11 645.34 647.36 671.05 631.94 696.95 C 610.17 732.71 588.91 768.78 566.54 804.16 C 550.15 754.99 533.83 705.79 517.32 656.66 C 516.39 653.73 515.62 650.74 514.96 647.74 Z"/>
</g>
<g id="#329ce4ff">
<path fill="#329ce4" opacity="1.00" d=" M 324.90 99.04 C 335.40 103.05 345.77 107.39 356.26 111.44 C 350.51 118.56 344.77 125.70 338.60 132.47 C 334.15 121.28 329.45 110.18 324.90 99.04 Z"/>
<path fill="#329ce4" opacity="1.00" d=" M 191.68 100.27 C 240.42 111.80 289.15 123.36 337.82 135.17 C 343.58 149.82 349.50 164.40 354.91 179.19 C 300.91 152.06 245.87 127.02 191.68 100.27 Z"/>
<path fill="#329ce4" opacity="1.00" d=" M 357.87 182.06 C 406.56 205.87 455.71 228.77 504.33 252.72 C 480.16 249.43 456.23 244.59 432.14 240.79 C 413.54 237.26 394.73 234.87 376.22 230.86 C 370.05 214.61 364.04 198.31 357.87 182.06 Z"/>
<path fill="#329ce4" opacity="1.00" d=" M 711.95 222.93 C 722.05 225.11 732.12 227.47 742.13 230.10 C 732.83 237.56 723.60 245.10 714.06 252.25 C 713.18 242.49 712.51 232.71 711.95 222.93 Z"/>
<path fill="#329ce4" opacity="1.00" d=" M 677.93 280.83 C 689.89 271.87 701.75 262.77 713.86 254.00 C 760.07 273.27 806.88 291.10 853.30 309.87 C 835.24 308.08 817.46 304.29 799.54 301.53 C 759.03 294.51 718.31 288.55 677.93 280.83 Z"/>
<path fill="#329ce4" opacity="1.00" d=" M 516.71 256.12 C 544.69 260.16 572.52 265.14 600.46 269.47 C 625.29 273.87 650.35 277.01 675.05 282.16 C 661.79 292.29 649.01 303.04 635.40 312.70 C 596.07 293.38 556.00 275.54 516.71 256.12 Z"/>
</g>
<g id="#323240ff">
<path fill="#323240" opacity="1.00" d=" M 695.34 143.32 C 697.37 129.10 698.76 114.78 701.45 100.67 C 704.99 151.43 708.81 202.18 712.86 252.90 C 700.95 261.65 689.31 270.76 677.30 279.38 C 683.31 234.03 689.31 188.67 695.34 143.32 Z"/>
<path fill="#323240" opacity="1.00" d=" M 715.62 253.43 C 724.42 245.83 733.51 238.56 742.89 231.68 C 742.24 242.23 741.53 252.77 740.79 263.31 C 732.30 260.29 723.98 256.79 715.62 253.43 Z"/>
<path fill="#323240" opacity="1.00" d=" M 636.17 314.12 C 649.32 304.22 662.07 293.81 675.16 283.82 C 673.34 307.60 669.45 331.16 666.79 354.86 C 663.04 384.67 659.39 414.50 655.58 444.31 C 648.91 400.94 643.03 357.46 636.17 314.12 Z"/>
<path fill="#323240" opacity="1.00" d=" M 638.06 585.69 C 643.62 541.67 649.68 497.70 655.41 453.70 C 663.27 508.17 670.31 562.78 678.84 617.15 C 664.98 607.01 651.96 595.77 638.06 585.69 Z"/>
<path fill="#323240" opacity="1.00" d=" M 680.16 619.82 C 692.29 628.42 703.91 637.71 716.02 646.33 C 712.95 696.99 709.76 747.65 706.46 798.30 C 697.05 738.91 689.49 679.23 680.16 619.82 Z"/>
<path fill="#323240" opacity="1.00" d=" M 717.00 646.49 C 726.06 643.13 734.86 639.13 743.92 635.75 C 744.91 646.91 745.76 658.09 746.94 669.24 C 736.83 661.82 726.98 654.08 717.00 646.49 Z"/>
</g>
<g id="#fda978ff">
<path fill="#fda978" opacity="1.00" d=" M 375.33 233.02 C 399.87 304.82 422.91 377.11 447.13 449.02 C 415.71 427.93 385.67 404.87 354.36 383.62 C 329.97 365.89 305.28 348.58 280.73 331.09 C 312.84 298.97 343.99 265.89 375.33 233.02 Z"/>
<path fill="#fda978" opacity="1.00" d=" M 143.01 234.96 C 188.35 266.97 232.96 299.97 278.31 331.97 C 265.07 343.17 254.28 356.82 241.77 368.77 C 225.20 384.55 210.29 401.94 193.73 417.73 C 182.56 428.62 172.56 440.64 161.12 451.27 C 154.82 379.19 149.74 307.00 143.01 234.96 Z"/>
<path fill="#fda978" opacity="1.00" d=" M 449.84 453.97 C 512.17 497.47 573.94 541.78 635.98 585.69 C 595.13 605.58 554.78 626.47 513.93 646.35 C 491.71 582.52 471.58 517.98 449.84 453.97 Z"/>
<path fill="#fda978" opacity="1.00" d=" M 28.80 590.95 C 73.25 546.63 115.96 500.60 159.89 455.76 C 155.79 516.56 152.58 577.44 147.95 638.20 C 130.09 631.51 112.56 623.98 94.70 617.28 C 72.83 608.26 50.60 600.13 28.80 590.95 Z"/>
<path fill="#fda978" opacity="1.00" d=" M 361.69 724.27 C 412.07 698.89 462.52 673.65 513.07 648.62 C 530.98 700.56 548.13 752.79 565.32 804.98 C 526.16 789.83 487.03 774.63 448.12 758.85 C 419.37 747.16 390.29 736.31 361.69 724.27 Z"/>
<path fill="#fda978" opacity="1.00" d=" M 179.92 682.91 C 239.44 696.66 298.94 710.53 358.39 724.62 C 302.10 753.07 245.70 781.30 189.15 809.22 C 186.14 767.11 182.53 725.05 179.92 682.91 Z"/>
</g>
<g id="#903454ff">
<path fill="#903454" opacity="1.00" d=" M 528.62 393.61 C 564.00 367.29 599.73 341.45 634.97 314.95 C 641.91 359.58 647.80 404.38 655.04 448.96 C 638.06 449.03 621.09 448.78 604.13 449.34 C 565.78 451.18 527.35 448.75 489.01 450.79 C 476.58 451.21 464.14 451.06 451.72 450.83 C 476.83 431.08 503.11 412.85 528.62 393.61 Z"/>
<path fill="#903454" opacity="1.00" d=" M 655.98 450.05 C 688.98 449.67 722.01 450.76 754.99 449.09 C 776.75 448.81 798.51 448.98 820.27 449.13 C 774.04 505.23 726.70 560.42 680.09 616.22 C 671.30 560.94 664.72 505.33 655.98 450.05 Z"/>
<path fill="#903454" opacity="1.00" d=" M 390.84 452.61 C 408.97 451.73 427.13 451.86 445.27 452.16 C 391.24 493.25 335.86 532.58 281.60 573.39 C 261.22 533.34 239.64 493.91 218.94 454.02 C 237.28 453.92 255.63 454.26 273.97 453.69 C 312.90 451.97 351.89 453.86 390.84 452.61 Z"/>
<path fill="#903454" opacity="1.00" d=" M 186.85 645.86 C 218.34 622.37 250.14 599.29 281.45 575.55 C 306.49 625.18 333.23 673.94 358.90 723.25 C 289.05 707.22 219.30 690.77 149.53 674.42 C 161.19 663.91 174.38 655.34 186.85 645.86 Z"/>
<path fill="#903454" opacity="1.00" d=" M 640.45 685.41 C 653.37 664.20 665.74 642.65 678.98 621.64 C 688.56 682.92 696.53 744.46 706.01 805.76 C 665.94 795.80 625.65 786.74 585.58 776.78 C 603.50 746.10 622.23 715.91 640.45 685.41 Z"/>
<path fill="#903454" opacity="1.00" d=" M 362.72 726.19 C 403.14 742.62 443.85 758.34 484.30 774.72 C 499.51 781.04 515.03 786.61 530.20 793.04 C 503.07 825.96 475.34 858.37 448.22 891.29 C 440.31 873.78 430.88 857.02 422.04 839.98 C 402.38 801.99 382.10 764.32 362.72 726.19 Z"/>
</g>
<g id="#ce6632ff">
<path fill="#ce6632" opacity="1.00" d=" M 30.71 325.94 C 48.21 343.89 66.03 361.52 83.76 379.24 C 109.31 403.00 133.47 428.20 158.22 452.78 C 142.04 452.86 125.88 453.91 109.70 453.87 C 103.75 442.58 96.47 432.07 89.80 421.21 C 70.34 389.31 50.17 357.83 30.71 325.94 Z"/>
<path fill="#ce6632" opacity="1.00" d=" M 162.77 454.15 C 181.08 453.87 199.39 453.93 217.70 454.14 C 237.04 492.91 258.59 530.57 277.81 569.41 C 239.58 530.88 200.98 492.70 162.77 454.15 Z"/>
<path fill="#ce6632" opacity="1.00" d=" M 69.71 456.26 C 82.52 456.09 95.31 455.24 108.11 454.94 C 102.79 463.81 97.63 472.79 92.00 481.48 C 84.04 473.56 76.92 464.85 69.71 456.26 Z"/>
<path fill="#ce6632" opacity="1.00" d=" M 285.20 579.59 C 316.42 610.76 347.29 642.31 378.96 673.01 C 372.65 689.64 366.60 706.36 360.51 723.07 C 337.70 680.55 315.43 637.74 292.78 595.14 C 290.04 590.06 287.56 584.84 285.20 579.59 Z"/>
<path fill="#ce6632" opacity="1.00" d=" M 343.98 771.62 C 349.46 756.28 354.88 740.91 360.70 725.70 C 388.11 779.09 416.77 831.84 443.83 885.41 C 417.97 856.16 392.71 826.38 366.91 797.08 C 358.83 788.99 351.44 780.27 343.98 771.62 Z"/>
<path fill="#ce6632" opacity="1.00" d=" M 342.36 772.73 C 342.81 772.20 342.81 772.20 342.36 772.73 Z"/>
<path fill="#ce6632" opacity="1.00" d=" M 312.49 780.30 C 322.25 777.07 332.32 774.90 342.36 772.73 C 338.51 784.62 333.69 796.17 329.62 807.98 C 323.99 798.70 318.15 789.56 312.49 780.30 Z"/>
</g>
<g id="#323232ff">
<path fill="#323232" opacity="1.00" d=" M 627.94 590.88 C 630.88 589.60 633.68 587.65 636.92 587.22 C 640.40 588.26 642.85 591.19 645.80 593.19 C 656.21 601.55 666.77 609.71 677.22 618.04 C 624.43 627.52 571.55 636.44 518.77 645.91 C 554.91 627.08 591.70 609.52 627.94 590.88 Z"/>
<path fill="#323232" opacity="1.00" d=" M 681.87 619.08 C 739.59 608.01 797.42 597.46 855.29 587.15 C 811.83 606.01 767.93 623.83 724.34 642.38 C 721.24 643.40 717.53 645.93 714.45 643.56 C 703.40 635.65 692.77 627.18 681.87 619.08 Z"/>
<path fill="#323232" opacity="1.00" d=" M 380.20 673.18 C 422.89 665.11 465.59 657.09 508.33 649.29 C 459.62 673.65 410.99 698.20 362.12 722.27 C 368.14 705.90 374.11 689.52 380.20 673.18 Z"/>
<path fill="#323232" opacity="1.00" d=" M 717.20 648.62 C 726.64 655.65 736.04 662.74 745.25 670.08 C 735.18 672.80 725.03 675.18 714.94 677.77 C 715.67 668.05 716.17 658.31 717.20 648.62 Z"/>
<path fill="#323232" opacity="1.00" d=" M 197.79 806.85 C 251.38 779.53 305.32 752.90 359.13 726.01 C 353.68 740.98 348.33 755.98 342.80 770.92 C 294.50 783.02 246.31 795.67 197.79 806.85 Z"/>
<path fill="#323232" opacity="1.00" d=" M 343.67 773.57 C 350.11 780.41 356.22 787.57 362.12 794.88 C 351.72 799.23 341.33 803.63 330.89 807.90 C 335.19 796.47 339.36 784.99 343.67 773.57 Z"/>
<path fill="#323232" opacity="1.00" d=" M 196.27 807.27 C 196.77 807.77 196.77 807.77 196.27 807.27 Z"/>
</g>
</svg>